# xmcd
#
# Track frame offsets: 
#        150
#        11245
#        27682
#        43452
#        54197
#        67112
#        84250
#        99675
#        115062
#        129325
#        145127
#        161730
#        175615
#        191750
#        218892
#        235087
#        253805
#        266830
#        281960
#        296895
#        314600
#
# Disc length: 4424 seconds
#
# Revision: 2
# Processed by: cddbd v1.5.2PL0 Copyright (c) Steve Scherf et al.
# Submitted via: ExactAudioCopyFreeDBPlugin 1.0
#
DISCID=4d114615
DTITLE=Various Artist - Malaco:  The Last Soul Company - A Thirty-Yea
DTITLE=r Retrospective [box set]
DYEAR=1999
DGENRE=Soul
TTITLE0=King Floyd and Dorothy Moore - We Can Love
TTITLE1=Dorothy Moore - Misty Blue
TTITLE2=The Jackson Southernaires - Travel On
TTITLE3=Elliot Small - E Ni Me Ni Mi Ni Mo
TTITLE4=Eddie Floyd - Somebody Touched Me
TTITLE5=Dorothy Moore - Funny How Time Slips Away
TTITLE6=Dorothy Moore and Eddie Floyd - We Should Really Be in Love
TTITLE7=Billy Cee - Dark Skin Woman
TTITLE8=Natural High - Flying Too High
TTITLE9=McKinley Mitchell - Trouble Blues
TTITLE10=Dorothy Moore - I Believe You
TTITLE11=Willie Cobbs - You Don't Love Me No More
TTITLE12=Joe Shamwell - I Wanna Be Your C.B.
TTITLE13=Dorothy Moore - With Pen in Hand
TTITLE14=McKinley Mitchell - The End of the Rainbow
TTITLE15=Nolan Struck - Fallin' in Love with You
TTITLE16=The Fiestas - I'm Gonna Hate Myself
TTITLE17=Ona Watson - Take This Job and Shove It
TTITLE18=Natural High - The Whole World is Dancin'
TTITLE19=Jewell Bass - Let Your Love Rain Down on Me
TTITLE20=Anita Ward - Ring My Bell
EXTD=
EXTT0=
EXTT1=
EXTT2=
EXTT3=
EXTT4=
EXTT5=
EXTT6=
EXTT7=
EXTT8=
EXTT9=
EXTT10=
EXTT11=
EXTT12=
EXTT13=
EXTT14=
EXTT15=
EXTT16=
EXTT17=
EXTT18=
EXTT19=
EXTT20=
PLAYORDER=
